<svg id="visual" viewBox="0 0 300 300" width="300" height="300" xmlns="http://www.w3.org/2000/svg" version="1.1">
    <g transform="translate(312.7240380742394 17.391739652885988)">
        <path d="M79.3 -101C96.8 -79.7 101.1 -49.2 101.7 -21.5C102.3 6.1 99.2 30.8 85.9 45.7C72.6 60.5 49.1 65.5 26.6 74.1C4.1 82.7 -17.4 94.9 -39.3 93.3C-61.2 91.7 -83.4 76.4 -101.6 54.2C-119.7 32 -133.7 3 -124.1 -16.8C-114.6 -36.5 -81.4 -47 -56.8 -67C-32.1 -87 -16.1 -116.5 7.4 -125.3C30.9 -134.1 61.7 -122.2 79.3 -101"
              fill="#acacac" fill-opacity="70%"></path>
    </g>
</svg>