<?xml version="1.0" encoding="utf-8"?>
<svg viewBox="0 0 675 900" xmlns="http://www.w3.org/2000/svg">
  <path d="M 0.612 3.976 L 23.112 1.933 C 45.612 -0.109 90.612 -4.194 135.612 -4.521 C 180.612 -4.822 225.612 -1.389 270.612 0.354 C 315.612 2.07 360.612 2.07 405.612 1.58 C 450.612 1.062 495.612 0.081 540.612 -0.6 C 585.612 -1.28 630.612 -1.661 653.112 -1.825 L 675.612 -2.017 L 675.612 105.837 L 653.112 105.837 C 630.612 105.837 585.612 105.837 540.612 105.837 C 495.612 105.837 450.612 105.837 405.612 105.837 C 360.612 105.837 315.612 105.837 270.612 105.837 C 225.612 105.837 180.612 105.837 135.612 105.837 C 90.612 105.837 45.612 105.837 23.112 105.837 L 0.612 105.837 L 0.612 3.976 Z" fill="#ececec" fill-opacity="40%" style="" transform="matrix(-1, 0, 0, -1, 676.223999, 101.297424)"/>
  <path d="M 0.612 6.679 L 23.112 6.679 C 45.612 6.679 90.612 6.679 135.612 5.598 C 180.612 4.495 225.612 2.332 270.612 0.079 C 315.612 -2.174 360.612 -4.516 405.612 -4.539 C 450.612 -4.584 495.612 -2.331 540.612 -1.024 C 585.612 0.304 630.612 0.665 653.112 0.868 L 675.612 1.048 L 675.612 79.44 L 653.112 79.44 C 630.612 79.44 585.612 79.44 540.612 79.44 C 495.612 79.44 450.612 79.44 405.612 79.44 C 360.612 79.44 315.612 79.44 270.612 79.44 C 225.612 79.44 180.612 79.44 135.612 79.44 C 90.612 79.44 45.612 79.44 23.112 79.44 L 0.612 79.44 L 0.612 6.679 Z" fill="#ececec" fill-opacity="80%" style="" transform="matrix(-1, 0, 0, -1, 676.223999, 74.900337)"/>
  <path d="M 0.612 -0.66 L 23.112 -1.371 C 45.612 -2.098 90.612 -3.518 135.612 -4.13 C 180.612 -4.742 225.612 -4.51 270.612 -4.428 C 315.612 -4.345 360.612 -4.411 405.612 -3.419 C 450.612 -2.428 495.612 -0.38 540.612 1.025 C 585.612 2.429 630.612 3.189 653.112 3.585 L 675.612 3.966 L 675.612 48.908 L 653.112 48.908 C 630.612 48.908 585.612 48.908 540.612 48.908 C 495.612 48.908 450.612 48.908 405.612 48.908 C 360.612 48.908 315.612 48.908 270.612 48.908 C 225.612 48.908 180.612 48.908 135.612 48.908 C 90.612 48.908 45.612 48.908 23.112 48.908 L 0.612 48.908 L 0.612 -0.66 Z" fill="#ececec" fill-opacity="100%" style="" transform="matrix(-1, 0, 0, -1, 676.223999, 44.368153)"/>
  <path d="M 0.612 -0.124 L 23.112 -0.374 C 45.612 -0.604 90.612 -1.105 135.612 -2.15 C 180.612 -3.194 225.612 -4.78 270.612 -4.509 C 315.612 -4.237 360.612 -2.066 405.612 -1.836 C 450.612 -1.586 495.612 -3.256 540.612 -3.507 C 585.612 -3.737 630.612 -2.567 653.112 -1.962 L 675.612 -1.377 L 675.612 50.411 L 653.112 50.411 C 630.612 50.411 585.612 50.411 540.612 50.411 C 495.612 50.411 450.612 50.411 405.612 50.411 C 360.612 50.411 315.612 50.411 270.612 50.411 C 225.612 50.411 180.612 50.411 135.612 50.411 C 90.612 50.411 45.612 50.411 23.112 50.411 L 0.612 50.411 L 0.612 -0.124 Z" fill="#ececec" fill-opacity="100%" style="" transform="matrix(-1, 0, 0, -1, 676.223999, 45.871323)"/>
  <path d="M 0.612 4.648 L 23.112 4.126 C 45.612 3.604 90.612 2.56 135.612 0.785 C 180.612 -0.99 225.612 -3.496 270.612 -2.932 C 315.612 -2.389 360.612 1.244 405.612 2.1 C 450.612 2.978 495.612 1.098 540.612 -0.468 C 585.612 -2.034 630.612 -3.287 653.112 -3.913 L 675.612 -4.54 L 675.612 42.444 L 653.112 42.444 C 630.612 42.444 585.612 42.444 540.612 42.444 C 495.612 42.444 450.612 42.444 405.612 42.444 C 360.612 42.444 315.612 42.444 270.612 42.444 C 225.612 42.444 180.612 42.444 135.612 42.444 C 90.612 42.444 45.612 42.444 23.112 42.444 L 0.612 42.444 L 0.612 4.648 Z" fill="#ececec" fill-opacity="75%" style="" transform="matrix(-1, 0, 0, -1, 676.223999, 37.904011)"/>
  <path d="M 0.612 -4.269 L 23.112 -3.496 C 45.612 -2.744 90.612 -1.199 135.612 -1.659 C 180.612 -2.118 225.612 -4.54 270.612 -4.54 C 315.612 -4.54 360.612 -2.118 405.612 -0.99 C 450.612 0.117 495.612 -0.092 540.612 -0.196 C 585.612 -0.301 630.612 -0.301 653.112 -0.301 L 675.612 -0.301 L 675.612 29.56 L 653.112 29.56 C 630.612 29.56 585.612 29.56 540.612 29.56 C 495.612 29.56 450.612 29.56 405.612 29.56 C 360.612 29.56 315.612 29.56 270.612 29.56 C 225.612 29.56 180.612 29.56 135.612 29.56 C 90.612 29.56 45.612 29.56 23.112 29.56 L 0.612 29.56 L 0.612 -4.269 Z" fill="#ececec" fill-opacity="80%" style="" transform="matrix(-1, 0, 0, -1, 676.223999, 25.019997)"/>
  <path d="M 0.612 4.021 L 23.112 3.959 C 45.612 3.876 90.612 3.75 135.612 2.602 C 180.612 1.453 225.612 -0.718 270.612 -0.99 C 315.612 -1.261 360.612 0.325 405.612 0.117 C 450.612 -0.092 495.612 -2.097 540.612 -3.183 C 585.612 -4.269 630.612 -4.394 653.112 -4.477 L 675.612 -4.54 L 675.612 22.607 L 653.112 22.607 C 630.612 22.607 585.612 22.607 540.612 22.607 C 495.612 22.607 450.612 22.607 405.612 22.607 C 360.612 22.607 315.612 22.607 270.612 22.607 C 225.612 22.607 180.612 22.607 135.612 22.607 C 90.612 22.607 45.612 22.607 23.112 22.607 L 0.612 22.607 L 0.612 4.021 Z" fill="#ececec" fill-opacity="90%" style="" transform="matrix(-1, 0, 0, -1, 676.223999, 18.067009)"/>
  <path d="M 0.612 -4.263 L 23.112 -4.013 C 45.612 -3.783 90.612 -3.282 135.612 -3.282 C 180.612 -3.282 225.612 -3.783 270.612 -4.117 C 315.612 -4.472 360.612 -4.681 405.612 -4.43 C 450.612 -4.2 495.612 -3.49 540.612 -2.759 C 585.612 -2.029 630.612 -1.277 653.112 -0.88 L 675.612 -0.504 L 675.612 9.728 L 653.112 9.728 C 630.612 9.728 585.612 9.728 540.612 9.728 C 495.612 9.728 450.612 9.728 405.612 9.728 C 360.612 9.728 315.612 9.728 270.612 9.728 C 225.612 9.728 180.612 9.728 135.612 9.728 C 90.612 9.728 45.612 9.728 23.112 9.728 L 0.612 9.728 L 0.612 -4.263 Z" fill="#ececec" fill-opacity="100%" style="" transform="matrix(-1, 0, 0, -1, 676.223999, 5.187803)"/>
</svg>