<?xml version="1.0" encoding="utf-8"?>
<svg preserveAspectRatio="none" viewBox="0 0 960 540" width="960" height="540" version="1.1" xmlns="http://www.w3.org/2000/svg">
  <path d="M 347.066 540 L 352.373 522 C 357.679 504 368.292 468 376.651 432 C 385.142 396 391.244 360 400.797 324 C 410.349 288 423.086 252 422.289 216 C 421.361 180 406.767 144 405.837 108 C 405.043 72 417.779 36 424.279 18 L 430.647 0 L 960 0 L 960 18 C 960 36 960 72 960 108 C 960 144 960 180 960 216 C 960 252 960 288 960 324 C 960 360 960 396 960 432 C 960 468 960 504 960 522 L 960 540 L 347.066 540 Z" fill="#ececec" fill-opacity="40%" style=""/>
  <path d="M 479.748 540 L 468.488 522 C 457.091 504 434.572 468 438.777 432 C 443.118 396 474.321 360 488.837 324 C 503.218 288 501.047 252 490.194 216 C 479.341 180 459.805 144 459.669 108 C 459.398 72 478.391 36 487.888 18 L 497.384 0 L 960 0 L 960 18 C 960 36 960 72 960 108 C 960 144 960 180 960 216 C 960 252 960 288 960 324 C 960 360 960 396 960 432 C 960 468 960 504 960 522 L 960 540 L 479.748 540 Z" fill="#e0e0e0" fill-opacity="50%" style=""/>
  <path d="M 543.57 540 L 541.804 522 C 540.185 504 536.654 468 535.182 432 C 533.711 396 534.299 360 533.563 324 C 532.828 288 530.768 252 531.503 216 C 532.239 180 535.771 144 525.176 108 C 514.581 72 490.155 36 477.794 18 L 465.581 0 L 960 0 L 960 18 C 960 36 960 72 960 108 C 960 144 960 180 960 216 C 960 252 960 288 960 324 C 960 360 960 396 960 432 C 960 468 960 504 960 522 L 960 540 L 543.57 540 Z" fill="#d3d3d3" fill-opacity="60%" style=""/>
  <path d="M 577.414 540 L 573.294 522 C 569.026 504 560.786 468 566.819 432 C 572.999 396 593.6 360 604.342 324 C 615.231 288 616.114 252 610.816 216 C 605.372 180 593.6 144 585.213 108 C 576.972 72 571.969 36 569.615 18 L 567.113 0 L 960 0 L 960 18 C 960 36 960 72 960 108 C 960 144 960 180 960 216 C 960 252 960 288 960 324 C 960 360 960 396 960 432 C 960 468 960 504 960 522 L 960 540 L 577.414 540 Z" fill="#c7c7c7" fill-opacity="70%" style=""/>
  <path d="M 661.288 540 L 658.64 522 C 655.844 504 650.547 468 644.661 432 C 638.775 396 632.3 360 635.979 324 C 639.658 288 653.49 252 660.111 216 C 666.733 180 666.144 144 660.847 108 C 655.402 72 645.102 36 639.952 18 L 634.802 0 L 960 0 L 960 18 C 960 36 960 72 960 108 C 960 144 960 180 960 216 C 960 252 960 288 960 324 C 960 360 960 396 960 432 C 960 468 960 504 960 522 L 960 540 L 661.288 540 Z" fill="#bbbbbb" fill-opacity="75%" style=""/>
  <path d="M 690.718 540 L 689.247 522 C 687.775 504 684.832 468 694.397 432 C 703.962 396 726.034 360 735.598 324 C 745.163 288 742.22 252 735.157 216 C 727.947 180 716.763 144 715.439 108 C 714.262 72 723.091 36 727.505 18 L 731.92 0 L 960 0 L 960 18 C 960 36 960 72 960 108 C 960 144 960 180 960 216 C 960 252 960 288 960 324 C 960 360 960 396 960 432 C 960 468 960 504 960 522 L 960 540 L 690.718 540 Z" fill="#afafaf" fill-opacity="80%" style=""/>
  <path d="M 799.608 540 L 802.992 522 C 806.524 504 813.293 468 816.824 432 C 820.209 396 820.209 360 816.089 324 C 811.821 288 803.581 252 796.371 216 C 789.308 180 783.422 144 786.806 108 C 790.338 72 802.992 36 809.467 18 L 815.794 0 L 960 0 L 960 18 C 960 36 960 72 960 108 C 960 144 960 180 960 216 C 960 252 960 288 960 324 C 960 360 960 396 960 432 C 960 468 960 504 960 522 L 960 540 L 799.608 540 Z" fill="#a4a4a4" fill-opacity="90%" style=""/>
  <path d="M 880.54 540 L 878.627 522 C 876.567 504 872.741 468 874.654 432 C 876.567 396 884.513 360 883.041 324 C 881.57 288 870.681 252 866.119 216 C 861.41 180 862.882 144 859.939 108 C 856.996 72 849.639 36 845.96 18 L 842.281 0 L 960 0 L 960 18 C 960 36 960 72 960 108 C 960 144 960 180 960 216 C 960 252 960 288 960 324 C 960 360 960 396 960 432 C 960 468 960 504 960 522 L 960 540 L 880.54 540 Z" fill="#989898" fill-opacity="100%" style=""/>
</svg>