<?xml version="1.0" encoding="utf-8"?>
<svg viewBox="0 0 500 500" xmlns="http://www.w3.org/2000/svg">
  <path d="M 0.328 185.452 L 16.985 179.167 C 33.642 172.881 66.956 160.308 100.27 159.303 C 133.584 158.38 166.897 168.941 200.211 174.305 C 233.525 179.587 266.839 179.587 300.153 178.078 C 333.467 176.485 366.781 173.467 400.095 171.372 C 433.409 169.276 466.723 168.103 483.379 167.6 L 500.036 167.014 L 500.036 498.916 L 483.379 498.916 C 466.723 498.916 433.409 498.916 400.095 498.916 C 366.781 498.916 333.467 498.916 300.153 498.916 C 266.839 498.916 233.525 498.916 200.211 498.916 C 166.897 498.916 133.584 498.916 100.27 498.916 C 66.956 498.916 33.642 498.916 16.985 498.916 L 0.328 498.916 L 0.328 185.452 Z" fill="#ececec" fill-opacity="40%" style=""/>
  <path d="M 0.799 227.947 L 17.456 227.947 C 34.113 227.947 67.427 227.947 100.758 223.92 C 134.089 219.81 167.435 211.756 200.783 203.367 C 234.132 194.977 267.482 186.253 300.796 186.169 C 334.111 186.001 367.39 194.391 400.684 199.256 C 433.978 204.205 467.286 205.548 483.939 206.303 L 500.593 206.974 L 499.393 498.916 L 482.736 498.916 C 466.08 498.916 432.766 498.916 399.452 498.916 C 366.138 498.916 332.824 498.916 299.51 498.916 C 266.196 498.916 232.882 498.916 199.568 498.916 C 166.254 498.916 132.941 498.916 99.627 498.916 C 66.313 498.916 32.999 498.916 16.342 498.916 L -0.315 498.916 L 0.799 227.947 Z" fill="#ececec" fill-opacity="80%" style=""/>
  <path d="M 0.328 290.795 L 16.985 287.812 C 33.642 284.76 66.956 278.794 100.27 276.227 C 133.584 273.66 166.897 274.631 200.211 274.978 C 233.525 275.325 266.839 275.048 300.153 279.21 C 333.467 283.372 366.781 291.974 400.095 297.871 C 433.409 303.768 466.723 306.959 483.379 308.624 L 500.036 310.22 L 500.036 498.916 L 483.379 498.916 C 466.723 498.916 433.409 498.916 400.095 498.916 C 366.781 498.916 333.467 498.916 300.153 498.916 C 266.839 498.916 233.525 498.916 200.211 498.916 C 166.897 498.916 133.584 498.916 100.27 498.916 C 66.956 498.916 33.642 498.916 16.985 498.916 L 0.328 498.916 L 0.328 290.795 Z" fill="#ececec" fill-opacity="100%" style=""/>
  <path d="M 0.328 340.574 L 16.985 339.789 C 33.642 339.069 66.956 337.499 100.27 334.228 C 133.584 330.956 166.897 325.984 200.211 326.834 C 233.525 327.684 266.839 334.489 300.153 335.209 C 333.467 335.994 366.781 330.76 400.095 329.975 C 433.409 329.255 466.723 332.919 483.379 334.816 L 500.036 336.648 L 500.036 498.916 L 483.379 498.916 C 466.723 498.916 433.409 498.916 400.095 498.916 C 366.781 498.916 333.467 498.916 300.153 498.916 C 266.839 498.916 233.525 498.916 200.211 498.916 C 166.897 498.916 133.584 498.916 100.27 498.916 C 66.956 498.916 33.642 498.916 16.985 498.916 L 0.328 498.916 L 0.328 340.574 Z" fill="#ececec" fill-opacity="100%" style=""/>
  <path d="M 0.328 259.538 L 16.985 256.232 C 33.642 252.925 66.956 246.313 100.27 235.071 C 133.584 223.829 166.897 207.958 200.211 211.529 C 233.525 214.969 266.839 237.98 300.153 243.403 C 333.467 248.957 366.781 237.055 400.095 227.135 C 433.409 217.216 466.723 209.282 483.379 205.313 L 500.036 201.346 L 500.036 498.916 L 483.379 498.916 C 466.723 498.916 433.409 498.916 400.095 498.916 C 366.781 498.916 333.467 498.916 300.153 498.916 C 266.839 498.916 233.525 498.916 200.211 498.916 C 166.897 498.916 133.584 498.916 100.27 498.916 C 66.956 498.916 33.642 498.916 16.985 498.916 L 0.328 498.916 L 0.328 259.538 Z" fill="#ececec" fill-opacity="75%" style=""/>
  <path d="M 0.328 300.934 L 16.985 305.456 C 33.642 309.855 66.956 318.899 100.27 316.21 C 133.584 313.522 166.897 299.345 200.211 299.345 C 233.525 299.345 266.839 313.522 300.153 320.121 C 333.467 326.598 366.781 325.376 400.095 324.765 C 433.409 324.154 466.723 324.154 483.379 324.154 L 500.036 324.154 L 500.036 498.916 L 483.379 498.916 C 466.723 498.916 433.409 498.916 400.095 498.916 C 366.781 498.916 333.467 498.916 300.153 498.916 C 266.839 498.916 233.525 498.916 200.211 498.916 C 166.897 498.916 133.584 498.916 100.27 498.916 C 66.956 498.916 33.642 498.916 16.985 498.916 L 0.328 498.916 L 0.328 300.934 Z" fill="#ececec" fill-opacity="80%" style=""/>
  <path d="M 0.328 390.148 L 16.985 389.781 C 33.642 389.293 66.956 388.559 100.27 381.838 C 133.584 375.116 166.897 362.406 200.211 360.817 C 233.525 359.229 266.839 368.517 300.153 367.295 C 333.467 366.072 366.781 354.34 400.095 347.985 C 433.409 341.63 466.723 340.897 483.379 340.408 L 500.036 340.042 L 500.036 498.916 L 483.379 498.916 C 466.723 498.916 433.409 498.916 400.095 498.916 C 366.781 498.916 333.467 498.916 300.153 498.916 C 266.839 498.916 233.525 498.916 200.211 498.916 C 166.897 498.916 133.584 498.916 100.27 498.916 C 66.956 498.916 33.642 498.916 16.985 498.916 L 0.328 498.916 L 0.328 390.148 Z" fill="#ececec" fill-opacity="90%" style=""/>
  <path d="M 0.328 417.035 L 16.985 418.501 C 33.642 419.845 66.956 422.778 100.27 422.778 C 133.584 422.778 166.897 419.845 200.211 417.89 C 233.525 415.812 266.839 414.59 300.153 416.057 C 333.467 417.401 366.781 421.556 400.095 425.834 C 433.409 430.111 466.723 434.511 483.379 436.833 L 500.036 439.033 L 500.036 498.916 L 483.379 498.916 C 466.723 498.916 433.409 498.916 400.095 498.916 C 366.781 498.916 333.467 498.916 300.153 498.916 C 266.839 498.916 233.525 498.916 200.211 498.916 C 166.897 498.916 133.584 498.916 100.27 498.916 C 66.956 498.916 33.642 498.916 16.985 498.916 L 0.328 498.916 L 0.328 417.035 Z" fill="#ececec" fill-opacity="100%" style=""/>
</svg>